<svg width="407" height="56" viewBox="0 0 407 56" fill="none" xmlns="http://www.w3.org/2000/svg">
<rect width="407" height="56" rx="8" fill="white"/>
<path d="M72.5471 19.138C72.1271 19.8847 71.6511 20.4167 71.1191 20.734C70.5871 21.042 69.9384 21.196 69.1731 21.196C68.5571 21.196 67.9924 21.0887 67.4791 20.874C66.9658 20.6593 66.5224 20.3467 66.1491 19.936C65.7851 19.516 65.5004 19.0073 65.2951 18.41C65.0991 17.8127 65.0011 17.1313 65.0011 16.366C65.0011 15.526 65.1131 14.8027 65.3371 14.196C65.5704 13.58 65.8738 13.0713 66.2471 12.67C66.6298 12.2593 67.0684 11.956 67.5631 11.76C68.0671 11.564 68.5851 11.466 69.1171 11.466C69.9851 11.466 70.6851 11.6573 71.2171 12.04C71.7491 12.4133 72.1738 12.95 72.4911 13.65L70.9651 14.49C70.8064 14.0793 70.5871 13.748 70.3071 13.496C70.0271 13.244 69.6444 13.118 69.1591 13.118C68.8698 13.118 68.5898 13.1833 68.3191 13.314C68.0484 13.4447 67.8104 13.6453 67.6051 13.916C67.3998 14.1867 67.2318 14.5273 67.1011 14.938C66.9798 15.3393 66.9191 15.8153 66.9191 16.366C66.9191 16.8513 66.9751 17.29 67.0871 17.682C67.2084 18.074 67.3718 18.4053 67.5771 18.676C67.7918 18.9467 68.0391 19.1567 68.3191 19.306C68.6084 19.4553 68.9164 19.53 69.2431 19.53C69.6631 19.53 70.0178 19.4367 70.3071 19.25C70.6058 19.054 70.8624 18.718 71.0771 18.242L72.5471 19.138ZM73.7987 21V11.746L75.6327 11.466V14.7C75.8567 14.532 76.1227 14.3873 76.4307 14.266C76.7387 14.1447 77.1167 14.084 77.5647 14.084C78.0127 14.084 78.3953 14.154 78.7127 14.294C79.0393 14.4247 79.3007 14.616 79.4967 14.868C79.702 15.12 79.8513 15.428 79.9447 15.792C80.0473 16.1467 80.0987 16.548 80.0987 16.996V21H78.2647V17.122C78.2647 16.8793 78.2507 16.66 78.2227 16.464C78.1947 16.268 78.1387 16.1047 78.0547 15.974C77.98 15.834 77.868 15.7267 77.7187 15.652C77.5693 15.5773 77.3733 15.54 77.1307 15.54C76.86 15.54 76.5893 15.6053 76.3187 15.736C76.0573 15.8667 75.8287 16.0207 75.6327 16.198V21H73.7987ZM84.8608 21.154C84.2914 21.154 83.7921 21.0513 83.3628 20.846C82.9428 20.6407 82.5881 20.37 82.2988 20.034C82.0188 19.698 81.8088 19.32 81.6688 18.9C81.5288 18.4707 81.4588 18.0367 81.4588 17.598C81.4588 17.1593 81.5288 16.73 81.6688 16.31C81.8088 15.89 82.0188 15.5167 82.2988 15.19C82.5881 14.854 82.9428 14.588 83.3628 14.392C83.7921 14.1867 84.2914 14.084 84.8608 14.084C85.4301 14.084 85.9248 14.1867 86.3448 14.392C86.7741 14.588 87.1288 14.854 87.4088 15.19C87.6981 15.5167 87.9128 15.89 88.0528 16.31C88.1928 16.73 88.2628 17.1593 88.2628 17.598C88.2628 18.0367 88.1928 18.4707 88.0528 18.9C87.9128 19.32 87.6981 19.698 87.4088 20.034C87.1288 20.37 86.7741 20.6407 86.3448 20.846C85.9248 21.0513 85.4301 21.154 84.8608 21.154ZM83.2508 17.598C83.2508 17.8873 83.2834 18.158 83.3488 18.41C83.4234 18.6527 83.5261 18.8673 83.6568 19.054C83.7968 19.2407 83.9648 19.39 84.1608 19.502C84.3661 19.6047 84.5994 19.656 84.8608 19.656C85.1221 19.656 85.3508 19.6047 85.5468 19.502C85.7521 19.39 85.9201 19.2407 86.0508 19.054C86.1908 18.8673 86.2934 18.6527 86.3588 18.41C86.4334 18.158 86.4708 17.8873 86.4708 17.598C86.4708 17.318 86.4334 17.052 86.3588 16.8C86.2934 16.548 86.1908 16.3333 86.0508 16.156C85.9201 15.9693 85.7521 15.8247 85.5468 15.722C85.3508 15.61 85.1221 15.554 84.8608 15.554C84.5994 15.554 84.3661 15.61 84.1608 15.722C83.9648 15.8247 83.7968 15.9693 83.6568 16.156C83.5261 16.3333 83.4234 16.548 83.3488 16.8C83.2834 17.052 83.2508 17.318 83.2508 17.598ZM92.64 21.154C92.0707 21.154 91.5714 21.0513 91.142 20.846C90.722 20.6407 90.3674 20.37 90.078 20.034C89.798 19.698 89.588 19.32 89.448 18.9C89.308 18.4707 89.238 18.0367 89.238 17.598C89.238 17.1593 89.308 16.73 89.448 16.31C89.588 15.89 89.798 15.5167 90.078 15.19C90.3674 14.854 90.722 14.588 91.142 14.392C91.5714 14.1867 92.0707 14.084 92.64 14.084C93.2094 14.084 93.704 14.1867 94.124 14.392C94.5534 14.588 94.908 14.854 95.188 15.19C95.4774 15.5167 95.692 15.89 95.832 16.31C95.972 16.73 96.042 17.1593 96.042 17.598C96.042 18.0367 95.972 18.4707 95.832 18.9C95.692 19.32 95.4774 19.698 95.188 20.034C94.908 20.37 94.5534 20.6407 94.124 20.846C93.704 21.0513 93.2094 21.154 92.64 21.154ZM91.03 17.598C91.03 17.8873 91.0627 18.158 91.128 18.41C91.2027 18.6527 91.3054 18.8673 91.436 19.054C91.576 19.2407 91.744 19.39 91.94 19.502C92.1454 19.6047 92.3787 19.656 92.64 19.656C92.9014 19.656 93.13 19.6047 93.326 19.502C93.5314 19.39 93.6994 19.2407 93.83 19.054C93.97 18.8673 94.0727 18.6527 94.138 18.41C94.2127 18.158 94.25 17.8873 94.25 17.598C94.25 17.318 94.2127 17.052 94.138 16.8C94.0727 16.548 93.97 16.3333 93.83 16.156C93.6994 15.9693 93.5314 15.8247 93.326 15.722C93.13 15.61 92.9014 15.554 92.64 15.554C92.3787 15.554 92.1454 15.61 91.94 15.722C91.744 15.8247 91.576 15.9693 91.436 16.156C91.3054 16.3333 91.2027 16.548 91.128 16.8C91.0627 17.052 91.03 17.318 91.03 17.598ZM98.2913 18.732C98.45 19.0307 98.674 19.2827 98.9633 19.488C99.2527 19.684 99.6353 19.782 100.111 19.782C100.849 19.782 101.217 19.5627 101.217 19.124C101.217 19.0307 101.194 18.942 101.147 18.858C101.11 18.774 101.031 18.6947 100.909 18.62C100.788 18.5453 100.625 18.4753 100.419 18.41C100.214 18.3447 99.9527 18.2793 99.6353 18.214C99.2807 18.1393 98.954 18.0507 98.6553 17.948C98.366 17.836 98.1187 17.7007 97.9133 17.542C97.708 17.374 97.5493 17.178 97.4373 16.954C97.3253 16.7207 97.2693 16.4407 97.2693 16.114C97.2693 15.8153 97.3347 15.5447 97.4653 15.302C97.596 15.05 97.778 14.8353 98.0113 14.658C98.254 14.4713 98.548 14.3313 98.8933 14.238C99.2387 14.1353 99.6213 14.084 100.041 14.084C100.807 14.084 101.413 14.21 101.861 14.462C102.309 14.7047 102.655 15.0033 102.897 15.358L101.609 16.24C101.441 16.016 101.227 15.8293 100.965 15.68C100.704 15.5307 100.396 15.456 100.041 15.456C99.6587 15.456 99.388 15.5167 99.2293 15.638C99.08 15.75 99.0053 15.8993 99.0053 16.086C99.0053 16.3007 99.0987 16.4547 99.2853 16.548C99.472 16.6413 99.8173 16.7393 100.321 16.842C100.732 16.926 101.096 17.0287 101.413 17.15C101.74 17.262 102.015 17.402 102.239 17.57C102.463 17.738 102.631 17.9433 102.743 18.186C102.865 18.4193 102.925 18.704 102.925 19.04C102.925 19.404 102.851 19.7213 102.701 19.992C102.552 20.2533 102.347 20.4727 102.085 20.65C101.824 20.818 101.516 20.944 101.161 21.028C100.807 21.112 100.429 21.154 100.027 21.154C99.2247 21.154 98.5713 21.0047 98.0673 20.706C97.5727 20.398 97.1947 20.0153 96.9333 19.558L98.2913 18.732ZM105.646 18.06C105.674 18.34 105.735 18.5827 105.828 18.788C105.922 18.9933 106.038 19.1613 106.178 19.292C106.318 19.4227 106.472 19.5207 106.64 19.586C106.818 19.642 107 19.67 107.186 19.67C107.513 19.67 107.807 19.614 108.068 19.502C108.33 19.3807 108.6 19.124 108.88 18.732L110.238 19.558C109.846 20.146 109.398 20.5613 108.894 20.804C108.4 21.0373 107.812 21.154 107.13 21.154C106.682 21.154 106.258 21.084 105.856 20.944C105.455 20.804 105.1 20.5893 104.792 20.3C104.494 20.0013 104.256 19.6327 104.078 19.194C103.901 18.7553 103.812 18.2327 103.812 17.626C103.812 17.0567 103.896 16.5527 104.064 16.114C104.242 15.6753 104.48 15.3067 104.778 15.008C105.077 14.7093 105.422 14.4807 105.814 14.322C106.216 14.1633 106.64 14.084 107.088 14.084C108.031 14.084 108.787 14.4153 109.356 15.078C109.935 15.7313 110.234 16.7253 110.252 18.06H105.646ZM108.39 16.814C108.372 16.59 108.32 16.394 108.236 16.226C108.162 16.058 108.064 15.918 107.942 15.806C107.821 15.694 107.686 15.61 107.536 15.554C107.387 15.498 107.238 15.47 107.088 15.47C106.771 15.47 106.472 15.5913 106.192 15.834C105.912 16.0673 105.744 16.394 105.688 16.814H108.39ZM114.558 21V11.662H120.914V13.356H116.448V15.568H120.004V17.234H116.448V21H114.558ZM122.806 13.482C122.442 13.482 122.167 13.3793 121.98 13.174C121.803 12.9687 121.714 12.74 121.714 12.488C121.714 12.2453 121.803 12.0213 121.98 11.816C122.167 11.6107 122.442 11.508 122.806 11.508C123.17 11.508 123.441 11.6107 123.618 11.816C123.805 12.0213 123.898 12.2453 123.898 12.488C123.898 12.74 123.805 12.9687 123.618 13.174C123.441 13.3793 123.17 13.482 122.806 13.482ZM121.896 21V14.434L123.716 14.154V21H121.896ZM125.533 21V11.746L127.367 11.466V21H125.533ZM130.597 18.06C130.625 18.34 130.686 18.5827 130.779 18.788C130.873 18.9933 130.989 19.1613 131.129 19.292C131.269 19.4227 131.423 19.5207 131.591 19.586C131.769 19.642 131.951 19.67 132.137 19.67C132.464 19.67 132.758 19.614 133.019 19.502C133.281 19.3807 133.551 19.124 133.831 18.732L135.189 19.558C134.797 20.146 134.349 20.5613 133.845 20.804C133.351 21.0373 132.763 21.154 132.081 21.154C131.633 21.154 131.209 21.084 130.807 20.944C130.406 20.804 130.051 20.5893 129.743 20.3C129.445 20.0013 129.207 19.6327 129.029 19.194C128.852 18.7553 128.763 18.2327 128.763 17.626C128.763 17.0567 128.847 16.5527 129.015 16.114C129.193 15.6753 129.431 15.3067 129.729 15.008C130.028 14.7093 130.373 14.4807 130.765 14.322C131.167 14.1633 131.591 14.084 132.039 14.084C132.982 14.084 133.738 14.4153 134.307 15.078C134.886 15.7313 135.185 16.7253 135.203 18.06H130.597ZM133.341 16.814C133.323 16.59 133.271 16.394 133.187 16.226C133.113 16.058 133.015 15.918 132.893 15.806C132.772 15.694 132.637 15.61 132.487 15.554C132.338 15.498 132.189 15.47 132.039 15.47C131.722 15.47 131.423 15.5913 131.143 15.834C130.863 16.0673 130.695 16.394 130.639 16.814H133.341Z" fill="black"/>
<path d="M65.5188 45V35.662H68.4308C69.5041 35.662 70.2974 35.9 70.8108 36.376C71.3334 36.852 71.5948 37.5567 71.5948 38.49C71.5948 39.3953 71.3194 40.0813 70.7688 40.548C70.2274 41.0147 69.4341 41.248 68.3888 41.248H66.6388V45H65.5188ZM66.6388 40.268H68.4728C69.0421 40.268 69.5041 40.128 69.8588 39.848C70.2134 39.568 70.3908 39.106 70.3908 38.462C70.3908 37.818 70.2228 37.3513 69.8868 37.062C69.5508 36.7727 69.0748 36.628 68.4588 36.628H66.6388V40.268ZM80.064 40.198C80.064 40.8513 79.9893 41.4393 79.84 41.962C79.6907 42.4753 79.4807 42.9233 79.21 43.306C78.9487 43.6887 78.636 44.006 78.272 44.258C77.908 44.51 77.516 44.6967 77.096 44.818C76.8813 44.8833 76.6247 44.93 76.326 44.958C76.0367 44.986 75.7753 45 75.542 45H73.134V35.662H75.542C75.906 35.662 76.284 35.6947 76.676 35.76C77.068 35.816 77.432 35.9233 77.768 36.082C78.104 36.2407 78.412 36.446 78.692 36.698C78.972 36.9407 79.21 37.2347 79.406 37.58C79.6113 37.9253 79.77 38.3173 79.882 38.756C80.0033 39.1853 80.064 39.666 80.064 40.198ZM78.874 40.254C78.874 39.442 78.748 38.7887 78.496 38.294C78.2533 37.7993 77.9173 37.412 77.488 37.132C77.2173 36.9547 76.8953 36.8287 76.522 36.754C76.158 36.67 75.8033 36.628 75.458 36.628H74.254V44.034H75.402C75.6073 44.034 75.8407 44.0247 76.102 44.006C76.3633 43.9873 76.6013 43.9313 76.816 43.838C77.096 43.726 77.362 43.572 77.614 43.376C77.866 43.18 78.0853 42.9373 78.272 42.648C78.4587 42.3587 78.6033 42.018 78.706 41.626C78.818 41.234 78.874 40.7767 78.874 40.254ZM81.884 45V35.662H87.176V36.628H83.004V39.778H86.084V40.744H82.99V45H81.884ZM91.2659 45V39.204H90.2859V38.322H91.2799V37.832C91.2799 37.4027 91.3265 37.0387 91.4199 36.74C91.5225 36.4413 91.6625 36.1987 91.8399 36.012C92.0172 35.8253 92.2272 35.69 92.4699 35.606C92.7125 35.522 92.9832 35.48 93.2819 35.48C93.6365 35.48 93.9352 35.5173 94.1779 35.592C94.4299 35.6573 94.6492 35.7413 94.8359 35.844L94.5139 36.67C94.3552 36.5953 94.1779 36.53 93.9819 36.474C93.7952 36.4087 93.5805 36.376 93.3379 36.376C93.1792 36.376 93.0392 36.3947 92.9179 36.432C92.7965 36.4693 92.6939 36.544 92.6099 36.656C92.5259 36.7587 92.4605 36.908 92.4139 37.104C92.3672 37.2907 92.3439 37.538 92.3439 37.846V38.322H94.0239L93.8699 39.204H92.3579V45H91.2659ZM100.694 41.654C100.694 42.0927 100.629 42.522 100.498 42.942C100.367 43.362 100.171 43.7353 99.91 44.062C99.658 44.3887 99.336 44.6547 98.944 44.86C98.552 45.056 98.0993 45.154 97.586 45.154C97.0727 45.154 96.62 45.056 96.228 44.86C95.8453 44.6547 95.5233 44.3887 95.262 44.062C95.0007 43.726 94.8047 43.348 94.674 42.928C94.5433 42.4987 94.478 42.0647 94.478 41.626C94.478 41.1873 94.5387 40.7627 94.66 40.352C94.7907 39.932 94.9867 39.5587 95.248 39.232C95.5093 38.9053 95.8313 38.644 96.214 38.448C96.606 38.252 97.0633 38.154 97.586 38.154C98.0993 38.154 98.552 38.2567 98.944 38.462C99.336 38.658 99.658 38.9193 99.91 39.246C100.171 39.5727 100.367 39.946 100.498 40.366C100.629 40.786 100.694 41.2153 100.694 41.654ZM99.644 41.64C99.644 41.3133 99.602 40.9913 99.518 40.674C99.434 40.3567 99.3033 40.0767 99.126 39.834C98.958 39.582 98.7433 39.3813 98.482 39.232C98.23 39.0827 97.9313 39.008 97.586 39.008C97.2407 39.008 96.9373 39.0827 96.676 39.232C96.424 39.3813 96.214 39.582 96.046 39.834C95.878 40.0767 95.752 40.3567 95.668 40.674C95.584 40.982 95.542 41.2993 95.542 41.626C95.542 41.962 95.584 42.2887 95.668 42.606C95.752 42.9233 95.878 43.208 96.046 43.46C96.2233 43.7027 96.438 43.9033 96.69 44.062C96.9513 44.2113 97.25 44.286 97.586 44.286C97.9313 44.286 98.23 44.2113 98.482 44.062C98.7433 43.9033 98.958 43.7027 99.126 43.46C99.3033 43.208 99.434 42.9233 99.518 42.606C99.602 42.2887 99.644 41.9667 99.644 41.64ZM102.306 45V38.406L103.272 38.238L103.37 38.91C103.547 38.7233 103.776 38.5507 104.056 38.392C104.336 38.2333 104.621 38.154 104.91 38.154C105.115 38.154 105.302 38.168 105.47 38.196C105.647 38.224 105.783 38.252 105.876 38.28L105.68 39.274C105.428 39.1713 105.134 39.12 104.798 39.12C104.527 39.12 104.266 39.1947 104.014 39.344C103.771 39.4933 103.561 39.6473 103.384 39.806V45H102.306ZM115.428 45V40.828C115.428 40.268 115.32 39.834 115.106 39.526C114.891 39.2087 114.499 39.05 113.93 39.05C113.743 39.05 113.556 39.078 113.37 39.134C113.183 39.1807 113.006 39.2413 112.838 39.316C112.679 39.3907 112.53 39.47 112.39 39.554C112.259 39.638 112.147 39.7173 112.054 39.792C112.1 39.9507 112.133 40.1187 112.152 40.296C112.18 40.464 112.194 40.688 112.194 40.968V45H111.116V40.828C111.116 40.5853 111.092 40.3567 111.046 40.142C111.008 39.9273 110.934 39.7407 110.822 39.582C110.719 39.414 110.579 39.2833 110.402 39.19C110.224 39.0967 109.996 39.05 109.716 39.05C109.389 39.05 109.062 39.134 108.736 39.302C108.418 39.4607 108.138 39.624 107.896 39.792V45H106.818V38.406L107.798 38.238L107.882 38.854C108.106 38.6953 108.395 38.5413 108.75 38.392C109.104 38.2333 109.492 38.154 109.912 38.154C110.266 38.154 110.607 38.2147 110.934 38.336C111.27 38.4573 111.55 38.6813 111.774 39.008C112.054 38.7747 112.394 38.574 112.796 38.406C113.197 38.238 113.636 38.154 114.112 38.154C114.578 38.154 114.966 38.2193 115.274 38.35C115.591 38.4713 115.838 38.6533 116.016 38.896C116.202 39.1293 116.333 39.4233 116.408 39.778C116.482 40.1233 116.52 40.52 116.52 40.968V45H115.428ZM122.121 45L122.065 44.426C121.832 44.6593 121.561 44.8413 121.253 44.972C120.955 45.0933 120.623 45.154 120.259 45.154C119.97 45.154 119.685 45.1073 119.405 45.014C119.135 44.93 118.892 44.804 118.677 44.636C118.472 44.4587 118.304 44.2393 118.173 43.978C118.043 43.7167 117.977 43.4133 117.977 43.068C117.977 42.592 118.103 42.2 118.355 41.892C118.617 41.5747 118.943 41.3273 119.335 41.15C119.727 40.9727 120.161 40.8467 120.637 40.772C121.113 40.6973 121.575 40.66 122.023 40.66V40.576C122.023 40.016 121.902 39.6147 121.659 39.372C121.426 39.1293 121.085 39.008 120.637 39.008C120.329 39.008 120.045 39.078 119.783 39.218C119.531 39.3487 119.317 39.526 119.139 39.75L118.383 39.218C118.654 38.854 118.971 38.588 119.335 38.42C119.709 38.2427 120.175 38.154 120.735 38.154C121.482 38.154 122.061 38.3453 122.471 38.728C122.891 39.1107 123.101 39.75 123.101 40.646V45H122.121ZM122.023 41.514C121.715 41.5233 121.389 41.5467 121.043 41.584C120.698 41.6213 120.376 41.696 120.077 41.808C119.788 41.9107 119.545 42.0647 119.349 42.27C119.163 42.4753 119.069 42.746 119.069 43.082C119.069 43.2967 119.111 43.4787 119.195 43.628C119.279 43.7773 119.382 43.9033 119.503 44.006C119.634 44.0993 119.774 44.1693 119.923 44.216C120.082 44.2533 120.236 44.272 120.385 44.272C120.712 44.272 121.011 44.2067 121.281 44.076C121.561 43.936 121.809 43.7727 122.023 43.586V41.514ZM126.499 39.204V43.474C126.499 43.8007 126.56 44.02 126.681 44.132C126.812 44.2347 126.975 44.286 127.171 44.286C127.349 44.286 127.517 44.2487 127.675 44.174C127.834 44.0993 127.979 44.0107 128.109 43.908L128.529 44.636C128.315 44.7947 128.1 44.9207 127.885 45.014C127.68 45.1073 127.386 45.154 127.003 45.154C126.499 45.154 126.112 45.028 125.841 44.776C125.571 44.5147 125.435 44.118 125.435 43.586V39.204H124.287V38.322H125.435V36.6L126.513 36.404V38.322H128.333L128.179 39.204H126.499Z" fill="#98A2B3"/>
<circle cx="137" cy="40" r="2" fill="#98A2B3"/>
<path d="M146.166 45V35.662H147.482L150.198 42.872L152.998 35.662H154.3V45H153.222V37.874L150.324 45.154H150.1L147.258 37.888V45H146.166ZM160.113 45L160.057 44.426C159.823 44.6593 159.553 44.8413 159.245 44.972C158.946 45.0933 158.615 45.154 158.251 45.154C157.961 45.154 157.677 45.1073 157.397 45.014C157.126 44.93 156.883 44.804 156.669 44.636C156.463 44.4587 156.295 44.2393 156.165 43.978C156.034 43.7167 155.969 43.4133 155.969 43.068C155.969 42.592 156.095 42.2 156.347 41.892C156.608 41.5747 156.935 41.3273 157.327 41.15C157.719 40.9727 158.153 40.8467 158.629 40.772C159.105 40.6973 159.567 40.66 160.015 40.66V40.576C160.015 40.016 159.893 39.6147 159.651 39.372C159.417 39.1293 159.077 39.008 158.629 39.008C158.321 39.008 158.036 39.078 157.775 39.218C157.523 39.3487 157.308 39.526 157.131 39.75L156.375 39.218C156.645 38.854 156.963 38.588 157.327 38.42C157.7 38.2427 158.167 38.154 158.727 38.154C159.473 38.154 160.052 38.3453 160.463 38.728C160.883 39.1107 161.093 39.75 161.093 40.646V45H160.113ZM160.015 41.514C159.707 41.5233 159.38 41.5467 159.035 41.584C158.689 41.6213 158.367 41.696 158.069 41.808C157.779 41.9107 157.537 42.0647 157.341 42.27C157.154 42.4753 157.061 42.746 157.061 43.082C157.061 43.2967 157.103 43.4787 157.187 43.628C157.271 43.7773 157.373 43.9033 157.495 44.006C157.625 44.0993 157.765 44.1693 157.915 44.216C158.073 44.2533 158.227 44.272 158.377 44.272C158.703 44.272 159.002 44.2067 159.273 44.076C159.553 43.936 159.8 43.7727 160.015 43.586V41.514ZM162.013 45L164.253 41.598L162.111 38.322H163.329L164.841 40.716L166.367 38.322H167.515L165.387 41.57L167.599 45H166.437L164.799 42.508L163.175 45H162.013ZM169.045 45.154C168.831 45.154 168.649 45.0747 168.499 44.916C168.359 44.748 168.289 44.5473 168.289 44.314C168.289 44.0807 168.359 43.8847 168.499 43.726C168.649 43.558 168.831 43.474 169.045 43.474C169.26 43.474 169.437 43.558 169.577 43.726C169.727 43.8847 169.801 44.0807 169.801 44.314C169.801 44.5473 169.727 44.748 169.577 44.916C169.437 45.0747 169.26 45.154 169.045 45.154ZM173.783 42.13V41.136L178.375 35.816H179.089V41.192H180.097V42.13H179.089V45H178.039V42.13H173.783ZM174.973 41.192H178.039V37.692L174.973 41.192ZM181.932 45V35.662H183.248L185.964 42.872L188.764 35.662H190.066V45H188.988V37.874L186.09 45.154H185.866L183.024 37.888V45H181.932ZM192.336 45V35.662H195.122C196.083 35.662 196.816 35.8767 197.32 36.306C197.824 36.7353 198.076 37.314 198.076 38.042C198.076 38.6393 197.899 39.1013 197.544 39.428C197.189 39.7453 196.732 39.9507 196.172 40.044C196.452 40.072 196.732 40.1327 197.012 40.226C197.292 40.31 197.544 40.4453 197.768 40.632C198.001 40.8187 198.188 41.0567 198.328 41.346C198.477 41.626 198.552 41.976 198.552 42.396C198.552 42.7973 198.477 43.1613 198.328 43.488C198.188 43.8053 197.992 44.076 197.74 44.3C197.488 44.524 197.189 44.6967 196.844 44.818C196.499 44.9393 196.121 45 195.71 45H192.336ZM193.456 39.624H195.024C195.612 39.624 196.069 39.4887 196.396 39.218C196.732 38.938 196.9 38.546 196.9 38.042C196.9 37.5847 196.751 37.2347 196.452 36.992C196.163 36.7493 195.733 36.628 195.164 36.628H193.456V39.624ZM193.456 44.034H195.612C196.144 44.034 196.569 43.9033 196.886 43.642C197.203 43.3713 197.362 42.956 197.362 42.396C197.362 41.7987 197.166 41.3507 196.774 41.052C196.391 40.744 195.822 40.59 195.066 40.59H193.456V44.034Z" fill="#98A2B3"/>
</svg>
