<svg width="95" height="36" viewBox="0 0 95 36" fill="none" xmlns="http://www.w3.org/2000/svg">
<rect x="0.5" y="0.5" width="94" height="35" rx="5.5" fill="white"/>
<rect x="0.5" y="0.5" width="94" height="35" rx="5.5" stroke="#38AEE0"/>
<path d="M22.7598 13.4176V20.0776C22.7598 20.4976 22.4198 20.8376 21.9998 20.8376C21.5798 20.8376 21.2598 20.4976 21.2598 20.0776V13.4176L18.7398 15.6376C18.4398 15.9176 17.9598 15.8976 17.6998 15.5776C17.4198 15.2776 17.4398 14.7976 17.7598 14.5176L21.4998 11.1976C21.7798 10.9376 22.1998 10.9376 22.4998 11.1776C22.4998 11.1976 22.4998 11.1976 22.4998 11.1976L26.2398 14.5176C26.5598 14.7976 26.5798 15.2776 26.3198 15.5776C26.0398 15.8976 25.5598 15.9176 25.2598 15.6376L22.7598 13.4176ZM27.1598 22.0776C27.1598 21.6576 27.4998 21.3376 27.9198 21.3376C28.3398 21.3376 28.6598 21.6576 28.6598 22.0776V23.9176C28.6598 24.3176 28.3398 24.6576 27.9198 24.6576H16.0798C15.6798 24.6576 15.3398 24.3176 15.3398 23.9176V22.0776C15.3398 21.6576 15.6798 21.3376 16.0798 21.3376C16.4998 21.3376 16.8398 21.6576 16.8398 22.0776V23.1576H27.1598V22.0776Z" fill="#38AEE0"/>
<path d="M43.0833 13.662V19.612C43.0833 20.172 43.2467 20.634 43.5733 20.998C43.9 21.3527 44.3713 21.53 44.9873 21.53C45.6033 21.53 46.07 21.3527 46.3873 20.998C46.714 20.634 46.8773 20.172 46.8773 19.612V13.662H48.7673V19.794C48.7673 20.326 48.6693 20.802 48.4733 21.222C48.2773 21.642 48.0067 22.0013 47.6613 22.3C47.316 22.5893 46.9147 22.8133 46.4573 22.972C46 23.1213 45.5053 23.196 44.9733 23.196C44.4507 23.196 43.956 23.1213 43.4893 22.972C43.032 22.8133 42.6307 22.5893 42.2853 22.3C41.9493 22.0013 41.6833 21.642 41.4873 21.222C41.2913 20.802 41.1933 20.326 41.1933 19.794V13.662H43.0833ZM50.4687 25.646V16.42L52.1207 16.168L52.2187 16.756C52.3867 16.5973 52.606 16.448 52.8767 16.308C53.1567 16.1587 53.4927 16.084 53.8847 16.084C54.3793 16.084 54.8087 16.1727 55.1727 16.35C55.546 16.5273 55.854 16.77 56.0967 17.078C56.3393 17.386 56.5213 17.7547 56.6427 18.184C56.764 18.604 56.8247 19.066 56.8247 19.57C56.8247 20.0087 56.7547 20.4427 56.6147 20.872C56.4747 21.3013 56.2553 21.684 55.9567 22.02C55.6673 22.356 55.2987 22.6313 54.8507 22.846C54.4027 23.0513 53.866 23.154 53.2407 23.154C53.082 23.154 52.9187 23.1353 52.7507 23.098C52.5827 23.0607 52.4333 23.014 52.3027 22.958V25.646H50.4687ZM52.2887 21.446C52.5967 21.5767 52.8813 21.642 53.1427 21.642C53.4787 21.642 53.7633 21.586 53.9967 21.474C54.2393 21.362 54.4353 21.2127 54.5847 21.026C54.7433 20.83 54.86 20.6107 54.9347 20.368C55.0093 20.1253 55.0467 19.878 55.0467 19.626C55.0467 19.346 55.0187 19.08 54.9627 18.828C54.9067 18.5667 54.818 18.3427 54.6967 18.156C54.5753 17.9693 54.4167 17.82 54.2207 17.708C54.0247 17.596 53.7867 17.54 53.5067 17.54C53.2547 17.54 53.0167 17.61 52.7927 17.75C52.5687 17.8807 52.4007 18.0253 52.2887 18.184V21.446ZM57.9966 23V13.746L59.8306 13.466V23H57.9966ZM64.405 23.154C63.8357 23.154 63.3363 23.0513 62.907 22.846C62.487 22.6407 62.1323 22.37 61.843 22.034C61.563 21.698 61.353 21.32 61.213 20.9C61.073 20.4707 61.003 20.0367 61.003 19.598C61.003 19.1593 61.073 18.73 61.213 18.31C61.353 17.89 61.563 17.5167 61.843 17.19C62.1323 16.854 62.487 16.588 62.907 16.392C63.3363 16.1867 63.8357 16.084 64.405 16.084C64.9743 16.084 65.469 16.1867 65.889 16.392C66.3183 16.588 66.673 16.854 66.953 17.19C67.2423 17.5167 67.457 17.89 67.597 18.31C67.737 18.73 67.807 19.1593 67.807 19.598C67.807 20.0367 67.737 20.4707 67.597 20.9C67.457 21.32 67.2423 21.698 66.953 22.034C66.673 22.37 66.3183 22.6407 65.889 22.846C65.469 23.0513 64.9743 23.154 64.405 23.154ZM62.795 19.598C62.795 19.8873 62.8277 20.158 62.893 20.41C62.9677 20.6527 63.0703 20.8673 63.201 21.054C63.341 21.2407 63.509 21.39 63.705 21.502C63.9103 21.6047 64.1437 21.656 64.405 21.656C64.6663 21.656 64.895 21.6047 65.091 21.502C65.2963 21.39 65.4643 21.2407 65.595 21.054C65.735 20.8673 65.8377 20.6527 65.903 20.41C65.9777 20.158 66.015 19.8873 66.015 19.598C66.015 19.318 65.9777 19.052 65.903 18.8C65.8377 18.548 65.735 18.3333 65.595 18.156C65.4643 17.9693 65.2963 17.8247 65.091 17.722C64.895 17.61 64.6663 17.554 64.405 17.554C64.1437 17.554 63.9103 17.61 63.705 17.722C63.509 17.8247 63.341 17.9693 63.201 18.156C63.0703 18.3333 62.9677 18.548 62.893 18.8C62.8277 19.052 62.795 19.318 62.795 19.598ZM72.7163 23L72.6323 22.496C72.4363 22.7013 72.1843 22.8647 71.8763 22.986C71.5776 23.098 71.2463 23.154 70.8823 23.154C70.5836 23.154 70.2896 23.1027 70.0003 23C69.7203 22.9067 69.473 22.7713 69.2583 22.594C69.0436 22.4073 68.871 22.1833 68.7403 21.922C68.6096 21.6513 68.5443 21.348 68.5443 21.012C68.5443 20.5173 68.675 20.1207 68.9363 19.822C69.207 19.514 69.543 19.276 69.9443 19.108C70.3456 18.94 70.7796 18.8233 71.2463 18.758C71.713 18.6927 72.147 18.646 72.5483 18.618V18.394C72.5483 18.114 72.4643 17.8947 72.2963 17.736C72.1376 17.568 71.895 17.484 71.5683 17.484C71.307 17.484 71.069 17.54 70.8543 17.652C70.649 17.7547 70.467 17.8993 70.3083 18.086L69.0623 17.218C69.2396 16.994 69.4403 16.8073 69.6643 16.658C69.8976 16.5087 70.131 16.392 70.3643 16.308C70.607 16.224 70.845 16.168 71.0783 16.14C71.3116 16.1027 71.5263 16.084 71.7223 16.084C72.1143 16.084 72.4736 16.1353 72.8003 16.238C73.127 16.3313 73.407 16.4853 73.6403 16.7C73.883 16.9053 74.0696 17.1713 74.2003 17.498C74.331 17.8153 74.3963 18.2027 74.3963 18.66V23H72.7163ZM72.5623 19.85C72.301 19.8687 72.035 19.892 71.7643 19.92C71.503 19.948 71.265 19.9993 71.0503 20.074C70.8356 20.1487 70.6583 20.2607 70.5183 20.41C70.3876 20.55 70.3223 20.7367 70.3223 20.97C70.3223 21.194 70.4063 21.376 70.5743 21.516C70.7423 21.6467 70.9896 21.712 71.3163 21.712C71.5496 21.712 71.7736 21.6653 71.9883 21.572C72.2123 21.4787 72.4036 21.362 72.5623 21.222V19.85ZM80.2577 23L80.1737 22.482C80.0057 22.6593 79.7864 22.818 79.5157 22.958C79.245 23.0887 78.923 23.154 78.5497 23.154C78.055 23.154 77.621 23.0607 77.2477 22.874C76.8744 22.6873 76.557 22.4353 76.2957 22.118C76.0437 21.7913 75.8524 21.4133 75.7217 20.984C75.591 20.5547 75.5257 20.0927 75.5257 19.598C75.5257 19.1593 75.5957 18.73 75.7357 18.31C75.8757 17.89 76.0857 17.5167 76.3657 17.19C76.6457 16.854 76.9957 16.588 77.4157 16.392C77.8357 16.1867 78.3304 16.084 78.8997 16.084C79.2637 16.084 79.665 16.1493 80.1037 16.28V13.746L81.9237 13.466V23H80.2577ZM80.1037 17.75C79.7397 17.6193 79.413 17.554 79.1237 17.554C78.8157 17.554 78.545 17.61 78.3117 17.722C78.0877 17.834 77.901 17.988 77.7517 18.184C77.6024 18.3707 77.4904 18.5853 77.4157 18.828C77.341 19.0613 77.3037 19.304 77.3037 19.556C77.3037 19.8453 77.3317 20.1207 77.3877 20.382C77.453 20.634 77.551 20.858 77.6817 21.054C77.8124 21.2407 77.9757 21.39 78.1717 21.502C78.377 21.614 78.6244 21.67 78.9137 21.67C79.1377 21.67 79.3664 21.614 79.5997 21.502C79.833 21.3807 80.001 21.2407 80.1037 21.082V17.75Z" fill="#38AEE0"/>
</svg>
