<svg width="15" height="15" viewBox="0 0 15 15" fill="none" xmlns="http://www.w3.org/2000/svg">
<path fill-rule="evenodd" clip-rule="evenodd" d="M2.8125 0H12.1875C13.7408 0 15 1.2592 15 2.8125V12.1875C15 13.7408 13.7408 15 12.1875 15H2.8125C1.2592 15 0 13.7408 0 12.1875V2.8125C0 1.2592 1.2592 0 2.8125 0ZM11.9227 5.34043C12.2833 4.96889 12.2745 4.37536 11.9029 4.01476C11.5314 3.65415 10.9379 3.66302 10.5773 4.03457L5.79065 8.96641L4.42275 7.55699C4.06214 7.18544 3.46862 7.17657 3.09707 7.53718C2.72552 7.89778 2.71665 8.49131 3.07725 8.86286L5.11791 10.9654C5.29446 11.1473 5.53715 11.25 5.79065 11.25C6.04415 11.25 6.28684 11.1473 6.4634 10.9654L11.9227 5.34043Z" fill="#2F80ED"/>
</svg>
